<?xml version="1.0" encoding="utf-8"?>
<!DOCTYPE svg PUBLIC "-//W3C//DTD SVG 1.0//EN" "http://www.w3.org/TR/2001/REC-SVG-20010904/DTD/svg10.dtd">
<svg version="1.0" xmlns="http://www.w3.org/2000/svg" width="1270px" height="788px" viewBox="0 0 1270 788" preserveAspectRatio="xMidYMid meet">
 <g fill="#b27960">
  <path d="M23.2 746.3 l0.3 -2.8 33.4 -0.3 c23.6 -0.1 33.8 -0.6 34.8 -1.4 1 -0.8 1.4 -3.3 1.2 -9.2 -0.1 -4.5 0.4 -9.4 1 -11.1 0.8 -1.9 0.9 -3.1 0.2 -3.3 -2.5 -0.8 -5.4 -7.5 -5.4 -12.6 0 -6.9 3 -12.4 10.8 -20.2 3.5 -3.5 7.1 -7.6 8 -9.1 3.5 -5.7 7.3 -7.8 14.7 -7.9 6.6 -0.1 7.1 -0.3 11.9 -4.5 7.2 -6.3 11.1 -7.8 19.9 -7.9 6.4 0 8.4 0.5 13.5 3 3.3 1.6 6.8 3 7.7 3 1 0 3.8 -1.3 6.3 -2.9 3.2 -2 6.9 -3.2 12.6 -4.1 8.7 -1.2 7.4 -1.5 18.7 4.5 3.3 1.7 3.4 1.7 8.1 -0.7 2.6 -1.4 7.7 -3.1 11.4 -3.8 6.4 -1.3 6.8 -1.3 12.9 1.3 5.5 2.2 7.4 2.5 14.6 2.2 5.3 -0.2 9.2 -0.9 10.7 -1.9 l2.4 -1.6 0.3 -110.5 c0.3 -97 0.5 -110.7 1.8 -111.5 0.8 -0.5 6.6 -1 12.7 -1 10.8 0 11.3 -0.1 11.8 -2.2 0.3 -1.3 0.4 -32 0.3 -68.3 -0.3 -76.3 0.8 -69.9 -11.3 -61.9 -3.8 2.5 -8.8 5.5 -11 6.6 -2.2 1.1 -12.7 7.2 -23.3 13.5 -13.8 8.2 -19.8 11.2 -21.2 10.8 -1.1 -0.4 -2 -1 -2 -1.5 0 -1.4 -9 -10.9 -11 -11.5 -2.3 -0.7 -3.4 -3.5 -2 -4.9 0.6 -0.6 3 -2.2 5.5 -3.6 2.4 -1.4 10.1 -5.9 17.2 -10.1 14.2 -8.4 27.5 -16 34.3 -19.7 2.5 -1.3 11.3 -6.4 19.5 -11.4 8.3 -4.9 17.7 -10.6 21 -12.5 3.3 -2 11 -6.5 17 -10.1 26.6 -15.9 42.2 -25.1 52.2 -31 6 -3.5 14 -8.3 17.8 -10.6 3.9 -2.3 9.7 -5.8 13 -7.6 9.4 -5.1 28.9 -16.5 41 -23.7 6.1 -3.6 17.1 -10.2 24.5 -14.6 31.3 -18.7 41.7 -25 45.8 -27.8 2.4 -1.8 5.2 -2.9 6.5 -2.7 l2.2 0.3 0 151.7 c0 83.4 0.2 151.8 0.5 152.1 0.3 0.2 2.6 0.7 5.1 1.1 8.7 1.3 7.9 16.7 7.9 -153.2 0 -82.9 0.3 -151.7 0.6 -152.9 0.4 -1.5 1.4 -2.3 2.9 -2.3 2.5 0 92.8 45.2 130 65 3.9 2.1 17.8 9.2 31 15.8 13.2 6.7 26.7 13.6 30 15.5 5.6 3.1 43.5 22.6 82.5 42.5 9.1 4.6 17.4 8.9 18.5 9.6 4.4 2.5 7.5 4.9 7.5 5.6 0 0.5 -2.3 3 -5.1 5.7 -2.8 2.6 -6.2 6.5 -7.5 8.6 -3 4.5 -5 4.7 -11.9 0.7 -2.7 -1.6 -6.3 -3.6 -7.9 -4.5 -1.7 -1 -3.2 -1.3 -3.8 -0.7 -1.2 1.2 -1.4 186 -0.2 187.2 1.1 1.1 194.7 1.5 196.4 0.5 1.8 -1.1 1 -2.3 -3.2 -4.8 -6.5 -3.7 -12.2 -6.5 -114.3 -56.6 -65.9 -32.4 -64 -31.3 -64 -34.7 0 -3.8 2.6 -4.3 7.3 -1.1 4.4 2.9 9.6 5.5 101.7 51.2 72.3 35.9 76.4 37.9 86.5 42.9 11.3 5.7 12.5 6.5 12.8 8.6 0.2 1.2 -0.5 3.1 -1.5 4.2 -1 1.1 -3.1 4.5 -4.8 7.6 -1.6 3.1 -4.1 6.2 -5.5 6.9 -1.5 0.8 -6.7 1.3 -13.2 1.3 -6 0 -10.8 0.1 -10.9 0.3 -0.5 2.6 -0.8 138.1 -0.2 142.7 0.7 5.6 1.1 6.5 2.9 6.8 1.9 0.3 9 -3.7 10.4 -5.7 1.1 -1.7 7 -4.1 10 -4.1 3.6 0 8.1 2.1 13 6.1 3.6 3 6.8 3.7 8.7 1.8 0.5 -0.5 3.4 -1.2 6.4 -1.5 6.8 -0.7 11.1 1.5 15.6 7.7 5 6.8 6.1 7.9 8.3 7.9 3.4 0 13 5.1 15.1 8.1 1.3 1.9 2.2 5.2 2.6 9.9 0.6 7.1 0.6 7.1 4.9 9.6 5.1 3 6.9 7.2 6.2 14.6 -0.4 3.4 -1.5 6.3 -3.7 9.4 -3.2 4.6 -3.8 7.3 -2.1 9 0.5 0.5 1 5 1.2 9.9 l0.3 9 22.4 0.3 c15.6 0.2 22.8 -0.1 23.7 -0.9 1.9 -1.6 2.1 -64.2 0.2 -65.6 -0.7 -0.5 -4 -1.7 -7.3 -2.7 -23.2 -7 -46.2 -38.2 -51.5 -70.1 -0.7 -3.8 -1.6 -8.8 -2.1 -11 -2.2 -10.2 -3 -20.6 -3 -39.7 0 -11.4 0.2 -21.1 0.5 -21.6 0.3 -0.5 1 -5.8 1.6 -11.8 2 -19.8 5 -41 7.5 -52 2.5 -10.9 4.5 -19.5 6 -24.9 0.8 -2.7 2.1 -7.9 3 -11.5 0.9 -3.6 2.3 -8.7 3.1 -11.5 0.8 -2.7 2.6 -9 4 -14 8.7 -30.3 10.1 -34.7 16.4 -52 10.4 -28.1 19.7 -47.2 24.2 -49.6 3.2 -1.7 7 0.6 10 6 9.4 16.6 21.7 51.1 34.9 97.6 1.1 3.9 2.4 8.4 2.9 10 1.2 3.9 7.2 28.9 9.4 39 1 4.4 2.2 9.8 2.8 12 0.6 2.2 1.6 6.9 2.3 10.5 0.7 3.6 1.8 9.2 2.4 12.5 4.9 24.9 5.5 31 5.5 56 0.1 23 -1.1 40.2 -3.5 51 -3.9 17.5 -13.7 40.9 -21.9 52 -8.7 11.8 -24.7 23.1 -35.1 24.9 -2.7 0.5 -3.8 1.3 -4.3 2.9 -0.3 1.2 -0.6 15.6 -0.6 31.9 0 25.6 0.2 29.9 1.6 31.2 1.3 1.3 4.6 1.6 20.5 1.6 l18.9 0 0 3 0 3 -587.1 0 -587 0 0.3 -2.7z m524.7 -4.7 c1.2 -1.4 0.9 -11.5 -0.4 -13.5 -0.4 -0.7 -76.9 -1 -223.9 -1.1 -203.8 0 -223.4 0.1 -224 1.6 -0.8 2.1 -0.8 12.9 0.1 13.7 0.3 0.4 101.1 0.7 223.8 0.7 191.6 0 223.4 -0.2 224.4 -1.4z m59.1 -0.1 c0.9 -1.1 1.2 -54.4 1.1 -243.8 -0.2 -222.7 0 -242.5 1.4 -243.1 0.9 -0.3 23.6 -0.6 50.5 -0.6 l48.8 0 1.6 2.6 c1 1.4 3.8 3.4 6.4 4.5 5.6 2.4 7.4 3.2 21.1 9.4 5.7 2.6 13.6 6.2 17.5 8.2 3.9 1.9 13 5.9 20.1 8.9 7.2 3 14.6 6.2 16.5 7.2 l3.5 1.7 0.3 81.9 c0.1 47 -0.2 82.4 -0.7 82.9 -0.5 0.5 -15.9 0.6 -36.5 0.1 l-35.7 -0.7 0.3 -2.6 c0.4 -3.3 5.9 -5.4 9.8 -3.9 2.9 1.2 54.1 1.1 55.3 -0.1 1.1 -1.1 1.7 -150.2 0.6 -152.3 -1 -1.8 -18.9 -10.8 -37.9 -19 -6.3 -2.7 -17.5 -7.9 -24.8 -11.5 -9.8 -4.9 -13.6 -6.3 -14.4 -5.5 -1.4 1.4 -1.9 205.6 -0.6 208.5 0.8 1.6 4.1 1.7 48.3 1.7 l47.4 0 0.7 -2.2 c1 -3 0.7 -190.9 -0.3 -191.9 -0.4 -0.4 -7.5 -4.2 -15.8 -8.3 -8.2 -4.1 -18.4 -9.4 -22.5 -11.7 -4.1 -2.2 -19.4 -10.1 -34 -17.5 -27.3 -13.7 -49.2 -25.1 -63.9 -33.1 -4.6 -2.5 -14.8 -7.7 -22.5 -11.5 -15.5 -7.6 -16.9 -8.4 -59.5 -30 -16.7 -8.4 -30.3 -14.8 -31.5 -14.6 l-2.1 0.3 -0.3 292.9 c-0.2 233.7 0 293.1 1 293.8 0.7 0.4 12.2 0.8 25.4 0.8 20.1 0 24.4 -0.3 25.4 -1.5z m96.6 0.3 c1.1 -1.7 0.4 -11.1 -0.8 -12.6 -0.9 -1 -8.3 -1.2 -35.7 -0.8 -19 0.2 -35.2 0.6 -36 0.7 -0.8 0.3 -1.7 -0.8 -2.3 -2.6 -1 -3.4 -1.8 -409.8 -0.9 -436 l0.6 -17 36.9 -0.3 c28.1 -0.2 37.2 -0.5 37.8 -1.5 1.3 -2.1 0.9 -9.4 -0.6 -10.6 -1.1 -0.9 -12.3 -1.1 -43.9 -0.9 -23.4 0.2 -42.9 0.6 -43.3 1 -0.4 0.4 -0.8 108.6 -1 240.3 -0.2 222.5 -0.1 239.6 1.4 240.5 2.6 1.5 86.9 1.3 87.8 -0.2z m85.2 -4.2 c0.2 -2.7 0.1 -6 -0.3 -7.3 l-0.5 -2.3 -37.9 0 c-42.7 0 -39.1 -0.8 -39.1 8.5 0 3.3 0.5 5.5 1.3 5.8 0.6 0.3 18.1 0.5 38.7 0.4 l37.5 -0.2 0.3 -4.9z m18.7 4.4 c0.3 -0.5 0.7 -51.1 0.8 -112.5 0.2 -105.5 0.3 -111.6 2 -113.2 4.6 -4.5 4.5 -5.6 4.5 113.2 0 61.2 0.3 111.8 0.6 112.4 1 1.6 40.8 1.5 42.4 -0.1 0.9 -0.9 1.2 -24.3 1.2 -99.3 0 -75 0.3 -98.4 1.2 -99.3 1.5 -1.5 80.4 -1.7 82.8 -0.2 1.3 0.8 1.6 13.4 2 100.2 l0.5 99.3 23.3 0.3 c14.9 0.1 24 -0.1 25.2 -0.8 2 -1.1 2 -2.7 2 -120.6 l0 -119.4 -2.3 -0.9 c-2.1 -0.8 -164.6 -0.7 -189.1 0.1 l-8.9 0.3 0.2 119.9 c0.1 66 0.4 120.3 0.7 120.8 0.7 1.1 10.1 1 10.9 -0.2z m130.3 -0.2 c1.6 -1.6 1.8 -188.9 0.2 -191.9 -1 -1.8 -2.5 -1.9 -36 -1.9 -33.5 0 -35 0.1 -36 1.9 -1.6 3 -1.4 190.3 0.2 191.9 0.9 0.9 10.2 1.2 35.8 1.2 25.6 0 34.9 -0.3 35.8 -1.2z m157 0 c1.3 -1.3 1.7 -10.4 0.6 -13.2 -0.6 -1.5 -5.2 -1.6 -46 -1.6 -41.6 0.1 -45.5 0.3 -46.3 1.8 -1.2 2.4 -1.1 11.4 0.1 13 1.5 1.7 89.8 1.8 91.6 0z m-392 -21.2 c1.7 -1.7 2.3 -73.6 0.5 -75.7 -0.9 -1.2 -6.8 -1.4 -34.4 -1.2 -30.9 0.2 -33.4 0.3 -34.7 2 -0.8 1 -1.1 3 -0.8 4.8 0.8 4.3 0.9 65.2 0.1 66.4 -0.3 0.6 -0.1 2 0.5 3.1 1 1.8 2.2 2 20.8 2.2 27.9 0.4 46.4 -0.2 48 -1.6z m85.6 0.2 c0.9 -1.3 1.3 -11 1.5 -38.7 l0.2 -37 -2.3 -1.2 c-2.7 -1.5 -74.5 -0.6 -76.1 1 -1.3 1.3 -1.3 73.1 0 75.6 1.1 1.9 2.1 2 38.3 2 33.9 0 37.3 -0.2 38.4 -1.7z m-261.4 -0.8 c1.1 -0.6 2.7 -3.5 3.7 -6.6 1.7 -5.5 1.7 -5.6 -0.6 -10 -2.7 -5 -7.3 -8.9 -12.2 -10.1 -3.8 -1 -5 -4.1 -2.4 -6.3 2.6 -2.1 1.8 -6.4 -1.9 -10 -3.3 -3.3 -11.5 -6.2 -21.3 -7.6 -3.6 -0.6 -4.6 -0.2 -8.1 2.6 -2.2 1.8 -4.5 2.9 -5.1 2.6 -0.5 -0.3 -1.5 -2.3 -2.2 -4.4 -1.4 -4.2 -2.7 -5.5 -8.5 -8.3 -3.3 -1.5 -5.5 -1.8 -10.5 -1.3 -14.6 1.3 -21.7 4.1 -23.9 9.4 -1.3 3.1 -4.2 5.4 -5.4 4.3 -0.3 -0.3 -0.6 -2 -0.6 -3.8 0 -5.8 -9.4 -10.5 -20.9 -10.5 -5.4 0 -7.7 0.6 -13.1 3.3 -3.7 1.8 -7 4.2 -7.6 5.6 -2.3 4.6 -6.3 4.9 -6.4 0.4 0 -2.2 -5.2 -6.1 -9.7 -7.3 -2.5 -0.8 -7.2 -1.1 -11.4 -0.8 -8.6 0.7 -12.1 2.8 -13 8.1 -1.2 7.3 -6 9.1 -8.5 3.2 -1 -2.4 -2.2 -3.6 -4.2 -4.1 -1.5 -0.3 -3.3 -0.8 -4 -1 -2.4 -0.7 -11.7 2.5 -14.5 5.1 -3.1 3 -3.4 5.5 -1.1 9.5 1.9 3.2 1.3 6 -1.3 6 -2 0 -6.3 -5.7 -6.3 -8.4 0 -2.2 -5.7 -7.6 -12.8 -12.3 -3.7 -2.4 -7.3 -3.8 -11.7 -4.4 -8.5 -1.4 -13.5 0 -18.4 5.2 -4.5 4.6 -6.8 4.9 -8.2 1.2 -1.8 -4.9 -8.9 -8.3 -17.4 -8.3 -7.9 0 -12.6 1.7 -17.5 6.6 -4.3 4.1 -4.7 4.3 -6.7 2.9 -1.1 -0.8 -2.3 -2.5 -2.7 -3.9 -1.5 -5.9 -11.4 -7.9 -21.6 -4.4 -5.4 1.9 -6.9 3 -9.3 6.6 -3.3 4.9 -5.1 5.3 -7.2 1.3 -3.4 -6.6 -12.4 -10 -22.1 -8.2 -7.5 1.4 -10.2 3.4 -14 10.7 -3.8 7.1 -6.5 8.1 -8.9 3.5 -1.3 -2.7 -2.1 -3.1 -5.7 -3.1 -3.8 0 -4.7 0.5 -9 5.2 -5 5.4 -5.5 7.1 -3.7 11.2 1.6 3.4 -0.4 6 -3.9 5.1 -5.2 -1.3 -10.8 5.8 -9.9 12.6 0.5 3.9 6.1 12.5 8.7 13.2 3.3 1 421.2 0.7 423 -0.3z m21.2 -12.7 c0.4 -7.3 0.6 -46.2 0.5 -86.3 -0.2 -60 -0.4 -73.2 -1.5 -73.9 -1.2 -0.7 -1.1 -1.4 0.2 -3.9 1.4 -2.7 1.6 -9.3 1.6 -53.1 l0 -50 -2.2 -1.5 c-3.2 -2.3 -8.4 -2 -10.9 0.5 -1.8 1.8 -1.9 2.8 -1.3 8.7 0.5 5.7 0.3 7 -1.1 8.2 -1.4 1.2 -20.7 1.4 -126.6 1.5 -83.2 0 -125.2 0.4 -125.9 1.1 -1.3 1.3 -1.4 197.4 -0.1 198.7 0.5 0.5 3 1.3 5.6 1.8 4.5 0.8 16.6 7.9 19.4 11.2 1.8 2.3 2.4 2.2 5.8 -1.3 1.7 -1.7 5.2 -3.9 7.9 -4.9 l4.9 -1.9 0.5 -58.8 c0.3 -32.4 0.9 -59.5 1.3 -60.1 0.6 -1 22.5 -1.3 103.8 -1.3 100 0 103 0.1 104.8 1.9 1.6 1.6 1.8 2.5 1 5.8 -0.6 2.2 -0.7 23.2 -0.4 51.3 0.4 26.1 0.2 58.5 -0.3 72 -0.8 22.9 -0.8 24.7 0.9 28.2 2.1 4.2 2.4 8.5 0.8 14.1 -0.5 2 -0.7 4.2 -0.4 4.8 0.4 0.5 3 0.9 5.8 0.7 l5.2 -0.3 0.7 -13.2z m546 10.5 c6.8 -7.2 8.8 -16.9 4.4 -21.3 -1.3 -1.3 -3.7 -2.7 -5.3 -3.1 -4.8 -1.2 -5.2 -1.9 -4.6 -9.8 0.6 -8.2 -1 -12.5 -5.4 -14.5 -3.5 -1.6 -8.4 -1.3 -10.5 0.5 -1.5 1.4 -2 1.5 -3.4 0.4 -0.9 -0.8 -1.3 -2.2 -1 -3.3 0.7 -2.8 -1.6 -7.7 -5.2 -11.1 -2.3 -2.2 -4.4 -3 -8.2 -3.4 -4.9 -0.4 -5.2 -0.3 -9.2 3.8 -4.4 4.7 -6.7 4.7 -7.8 0 -0.8 -3.5 -7.1 -8.1 -11.9 -8.7 -3.3 -0.5 -4.8 -0.1 -8.1 2.1 -2.2 1.4 -4.7 4 -5.6 5.7 -1.4 2.8 -1.9 3.1 -5 2.6 -3.1 -0.5 -3.6 -0.3 -4.4 1.9 -1.2 3 -0.8 58.3 0.3 60.2 0.6 0.9 10.6 1.2 44.4 1.2 l43.5 0 3 -3.2z m-566.8 -29.4 c1.4 -1.4 1.6 -9.1 1.6 -69.8 0 -56.7 -0.2 -68.5 -1.4 -69.5 -1.8 -1.5 -190.9 -1.5 -193.7 0 -1.8 0.9 -1.9 3.2 -1.9 56.3 0 60.9 -0.2 58.5 6 57.3 1.6 -0.4 4.7 -1.8 6.9 -3.1 5.6 -3.6 11.8 -4.9 20.8 -4.4 6.9 0.3 8.4 0.7 12.6 3.6 l4.7 3.3 5.3 -2.4 c2.8 -1.3 8.1 -3.2 11.7 -4.1 6 -1.6 7.2 -1.6 13.8 -0.2 4.5 0.9 9 2.7 11.7 4.5 4.9 3.3 6 3.2 11.2 -0.7 6.1 -4.6 27.3 -5.8 34.7 -2 1.1 0.6 3.7 2.9 5.7 5.2 l3.7 4.1 4.8 -1.8 c6.9 -2.4 11.8 -2.1 19.7 1.3 11.6 4.9 19.9 13.6 18.2 19.1 -0.4 1.1 -0.1 2.6 0.5 3.4 1.5 1.8 1.5 1.8 3.4 -0.1z m621.5 -20.7 c0.7 -0.9 1.1 -9.1 1.2 -23.5 l0.2 -22.2 -3.9 -5.4 c-2.1 -2.9 -7 -9.1 -10.7 -13.7 -3.7 -4.6 -8.4 -10.8 -10.5 -13.7 -3.6 -5.2 -3.6 -5.4 -1.7 -6.8 1.8 -1.3 2.2 -1.1 5.3 2.3 1.8 2.1 6.1 8.1 9.6 13.3 7 10.4 10 13.7 11 12.1 0.4 -0.6 0.6 -26.3 0.6 -57.2 l0 -56.3 -6.2 -9.5 c-13.8 -21.2 -20.8 -33.5 -19.6 -34.2 0.7 -0.5 2.1 -0.1 3 0.8 2.1 1.9 15.8 21.8 15.8 23 0.1 0.4 1.2 2.1 2.5 3.8 1.8 2.2 2.7 2.7 3.6 1.8 0.8 -0.8 1.1 -12.1 1 -38.4 0 -20.6 0.2 -37.9 0.7 -38.5 0.4 -0.6 1.5 -1.3 2.5 -1.7 3.1 -1.2 3.7 3.4 3.7 28.4 0 23 0.1 23.9 1.9 23.9 1.1 0 3 -1.5 4.2 -3.2 3.2 -4.7 15.1 -16.8 16.6 -16.8 0.6 0 1.4 0.4 1.7 0.8 1.3 2.1 -19.3 27.1 -23.4 28.4 -1.3 0.4 -1.5 5.4 -1.8 35.4 -0.4 38.5 0.5 73.4 1.9 73.4 1.9 0 18.1 -20.7 21.5 -27.5 3.3 -6.6 4.1 -7.3 6 -5.4 2.5 2.5 -2.3 13.2 -9.5 21.1 -6.7 7.4 -17.1 20.1 -18.9 23.2 -1.6 2.7 -0.9 81.3 0.7 82.9 1.5 1.5 9.2 -0.6 15.6 -4.3 10 -5.7 19 -16.3 26.8 -31.3 6.9 -13 12.4 -33.4 14.2 -52 0.3 -2.6 1 -6.8 1.6 -9.3 2.6 -10.2 -2.1 -65.6 -7.6 -90.9 -4.6 -20.7 -4.4 -20 -10.4 -42 -1.7 -6 -3.4 -13.5 -3.9 -16.5 -1.2 -6.7 -6.8 -26.9 -11.6 -41.6 -2 -6 -4.5 -13.8 -5.7 -17.4 -3.1 -10 -12.6 -33.5 -17.2 -43 -5.3 -10.8 -7.2 -11.4 -10.7 -3.8 -1.3 2.9 -3.8 8.5 -5.6 12.3 -5.8 12.5 -8.1 18.7 -15.4 41 -3.9 12.1 -8 24.5 -9 27.5 -4.1 12.4 -10.2 34.7 -13.4 49.5 -1.5 6.6 -3.5 15.8 -4.6 20.5 -8.6 37.8 -12.3 77.1 -10.1 106.8 2.2 28.9 11.7 57.7 24.5 73.8 6.7 8.6 15.8 15.5 25.1 19.3 6 2.4 6.9 2.5 8.4 0.8z m-445.9 -32.6 c0.6 -1.3 1 -16.9 1 -44 l0 -42.1 -2.2 -0.5 c-3.5 -0.9 -66.5 -0.1 -67.5 0.8 -1.3 1.3 -1.6 83.2 -0.3 85.6 1 2.1 1.8 2.1 34.5 2.1 32 0 33.5 -0.1 34.5 -1.9z m35.1 0.5 c4.6 -1.2 5.6 -1.2 7.3 0 1.6 1.1 6.5 1.4 22.3 1.4 11.1 0 20.4 -0.4 20.7 -0.8 0.3 -0.5 0.8 -19.6 1.1 -42.5 0.5 -31 0.3 -42.2 -0.6 -43.8 l-1.1 -2.2 -30.3 0.7 c-22.1 0.5 -32 0.4 -36.8 -0.5 -5.3 -1 -6.9 -1 -8.2 0.1 -1.3 1.1 -1.5 6.7 -1.5 44.5 0 28.7 0.3 43.4 1 43.7 3.2 1 21.4 0.6 26.1 -0.6z m-19.8 -91.8 c1.6 -1 11.7 -1.4 36.6 -1.8 l34.4 -0.5 0.2 -16 c0.2 -8.8 0.6 -17.1 0.9 -18.5 0.4 -1.5 0.1 -3.2 -0.7 -4.4 -1.4 -1.9 -3.2 -2 -39.5 -2.3 -44.6 -0.4 -41.9 -1.1 -40.7 9.6 0.4 3.6 1 12.3 1.3 19.2 0.8 15.2 2.1 17.7 7.5 14.7z m-15.4 -2.2 c0.5 -0.6 1.2 -6.7 1.5 -13.6 0.4 -6.9 0.9 -15.2 1.2 -18.6 0.9 -9.7 1.6 -9.4 -26.5 -9.4 -22.5 0 -24 -0.1 -26.4 -2 -2.8 -2.2 -4.7 -7.4 -4.7 -12.8 0 -4 -2.5 -5.2 -9 -4.3 l-4.5 0.6 -0.3 28.9 c-0.2 20.2 0.1 29.3 0.9 30.2 0.8 1 5.5 1.4 18.8 1.7 36.4 0.6 48.1 0.4 49 -0.7z m29.3 -48.2 c2.4 -1.2 3.6 -1.3 5.4 -0.5 3.7 1.6 284.7 1.9 286.7 0.3 2.2 -1.9 4.8 -7.8 4.1 -9.5 -0.5 -1.4 -16.8 -1.6 -145.9 -1.6 -132.7 -0.1 -145.5 0.1 -147 1.5 -0.9 1 -1.3 2.4 -1 3.3 0.4 0.9 0.9 2.2 1.2 3 0.4 0.9 0 1.2 -1.3 0.9 -1.3 -0.2 -2 -1.3 -2.2 -3.6 -0.2 -2.3 -1 -3.6 -2.6 -4.2 -1.2 -0.4 -18.3 -0.9 -38 -1.1 -30.4 -0.3 -35.9 -0.1 -36.6 1.1 -1.4 2.2 -1.2 8.8 0.3 9.7 0.6 0.4 12 1 25.2 1.4 45.9 1.1 48.3 1 51.7 -0.7z m-80.6 -17.7 c3.2 -1.1 8.1 -1.2 26.6 -0.4 18.2 0.8 23 0.8 24.2 -0.3 2 -1.6 2.2 -11.3 0.3 -12.8 -0.8 -0.7 -12.7 -1 -34.7 -0.9 l-33.5 0.2 -0.3 6.3 c-0.2 3.8 0.2 6.9 0.9 7.8 1.5 1.8 11.3 1.9 16.5 0.1z m51.6 -52.2 c0.6 -29.1 0 -142.3 -0.8 -143.6 -0.5 -0.8 -67.4 -0.7 -67.9 0.1 -0.8 1.3 -0.9 172.5 -0.1 173.8 0.5 0.9 9 1.1 34.4 0.9 l33.7 -0.2 0.7 -31z m-403.4 21.8 c0.4 -6.6 -1 -7.5 -11.6 -7.1 l-7.7 0.3 -0.3 4.9 c-0.5 7.7 -0.5 7.7 10 7.4 l9.3 -0.3 0.3 -5.2z m74 4.5 c0.7 -0.7 1.2 -3 1.2 -5.3 0 -2.3 -0.5 -4.6 -1.2 -5.3 -1.3 -1.3 -29.6 -1.5 -53.3 -0.3 l-13 0.6 -0.3 4.3 c-0.5 7.5 -1.8 7.2 33.7 7.2 23.3 0 32 -0.3 32.9 -1.2z m75.6 -0.4 c0.3 -0.9 0.6 -3 0.6 -4.7 0 -6.4 1.3 -6.2 -33.7 -5.9 -17.5 0.1 -32.6 0.2 -33.5 0.2 -1.5 0 -1.8 0.9 -1.8 5.4 0 3.4 0.5 5.6 1.3 5.9 0.6 0.3 15.9 0.6 33.8 0.6 28.9 0.1 32.8 -0.1 33.3 -1.5z m78.4 0.4 c1.5 -1.5 1.6 -9.4 0.1 -10.4 -0.6 -0.3 -16.4 -0.9 -35.1 -1.1 -25.3 -0.3 -34.3 -0.1 -35.4 0.8 -0.8 0.6 -1.4 2.9 -1.4 4.9 0 7.5 -2.7 7 35.9 7 25.7 0 35 -0.3 35.9 -1.2z m-155 -17.6 c1 -0.7 1.3 -16.4 1.2 -79.2 0 -44.6 -0.4 -78.8 -0.9 -79.3 -0.6 -0.6 -2.7 0.3 -5.3 2 -2.3 1.7 -8.8 5.6 -14.3 8.8 -5.5 3.3 -11.6 7 -13.5 8.3 -1.9 1.3 -4.4 2.8 -5.5 3.3 -1.1 0.5 -4.2 2.3 -7 3.9 -2.7 1.7 -7.9 4.6 -11.5 6.4 -11 5.7 -10 -1.1 -9.6 65.6 0.3 32 0.9 58.7 1.3 59.1 0.5 0.5 14.4 1 30.8 1.2 16.5 0.1 30.7 0.3 31.5 0.5 0.8 0.1 2.1 -0.2 2.8 -0.6z m75.7 -1.2 c0.8 -1.3 1.3 -176.3 0.5 -178.5 -0.5 -1.4 -1.1 -1.2 -4.3 0.9 -6 4.1 -18.2 10.6 -19.9 10.6 -0.9 0 -2.1 0.7 -2.8 1.5 -0.6 0.8 -4 3 -7.5 4.9 -3.4 1.9 -9.1 5.5 -12.5 8 -4 3 -7.2 4.6 -9.1 4.6 -6.5 0 -1.3 -5.9 10.1 -11.4 3.6 -1.8 10.9 -6.2 16.4 -9.9 8.7 -5.9 25.1 -14.7 27.4 -14.7 3.1 0 4.4 -13.6 1.6 -16.4 -0.8 -0.9 -1.8 -1.6 -2 -1.6 -0.3 0 -2.8 1.7 -5.7 3.9 -2.9 2.1 -8.6 5.8 -12.7 8.1 -22.8 13 -44.3 26.5 -45.7 28.7 -1.5 2.3 -1.7 9.4 -1.5 81.4 0 43.4 0.4 79.4 0.7 79.9 0.9 1.4 66.2 1.4 67 0z m79.4 -0.9 c0.7 -1.2 1.1 -31.1 1.1 -85.9 0 -93.8 0.6 -87 -7.1 -85.8 -2.2 0.4 -12.2 0.5 -22.2 0.4 -25.7 -0.3 -40 0.2 -41.4 1.4 -1 0.8 -1.3 18.7 -1.3 85.8 0 46.5 0.3 85 0.7 85.3 0.3 0.4 16.1 0.7 34.9 0.7 32.7 0 34.4 -0.1 35.3 -1.9z m-280 -113.2 c5.8 -3.4 11.3 -6.7 12.1 -7.4 0.8 -0.7 4.2 -2.7 7.5 -4.5 16.9 -9.2 39.6 -22.1 44.5 -25.2 3 -1.9 7.8 -4.7 10.5 -6.2 12.5 -6.9 23.9 -13.5 34.5 -19.9 12.4 -7.5 23.6 -14.2 34.2 -20.3 3.8 -2.1 12.5 -7.3 19.5 -11.5 7.1 -4.2 21.1 -12.5 31.3 -18.4 10.2 -6 19.9 -11.8 21.5 -13.1 2.9 -2.2 27.3 -16.4 28.1 -16.4 1 0 33.1 -19.5 35.2 -21.3 1.9 -1.7 2.2 -3.1 2.2 -8.9 0 -6.7 -0.1 -6.9 -2.2 -6.3 -1.3 0.4 -3.2 1.5 -4.3 2.5 -1.1 0.9 -8.7 5.7 -17 10.5 -8.2 4.8 -17.2 10.1 -20 11.7 -12.8 7.8 -36.6 21.8 -37 21.8 -0.2 0 -8.6 5 -18.7 11.1 -10 6.2 -21.2 12.8 -24.8 14.7 -12.9 6.9 -22.7 12.6 -31 18 -4.7 3.1 -14.8 9.1 -22.5 13.5 -7.7 4.4 -18.2 10.6 -23.3 13.8 -5.1 3.3 -9.5 5.9 -9.7 5.9 -0.2 0 -3.8 2 -7.9 4.5 -4.2 2.5 -7.9 4.5 -8.1 4.5 -0.2 0 -11.5 6.5 -25 14.5 -13.5 8 -24.8 14.5 -25 14.5 -0.2 0 -4.2 2.2 -8.7 4.8 -4.6 2.6 -10 5.7 -12.2 6.7 -2.1 1.1 -4 2.5 -4.3 3.2 -0.7 1.8 5.7 9.3 8.1 9.3 1.1 0 6.7 -2.8 12.5 -6.1z m72.3 -19.7 c6.2 -3.7 16.3 -9.4 22.3 -12.7 12.5 -6.6 27.7 -15.8 30 -18.1 2.1 -2.1 2.1 -13.2 0 -14 -0.8 -0.4 -4.7 1.3 -8.8 3.7 -3.9 2.4 -8.8 5.2 -10.6 6.2 -1.9 1.1 -9.8 5.9 -17.5 10.7 -7.8 4.8 -16.8 10.1 -20.1 11.8 -9.3 4.9 -9.5 5.1 -9.5 11.9 0 5.8 0.4 7.3 2.1 7.3 0.5 0 5.9 -3.1 12.1 -6.8z m518.1 -13.2 c1.5 -2.1 2.7 -4.5 2.7 -5.3 0 -0.8 -1.2 -2 -2.7 -2.6 -1.6 -0.6 -5.7 -2.7 -9.2 -4.6 -5.4 -3.1 -25.3 -13.2 -38.1 -19.3 -1.9 -0.9 -5.7 -3 -8.5 -4.6 -2.7 -1.6 -16.9 -8.9 -31.5 -16.4 -14.6 -7.4 -30.3 -15.5 -35 -18 -4.7 -2.5 -17 -8.9 -27.5 -14.2 -10.4 -5.3 -23.5 -12.1 -29 -15 -5.5 -2.9 -21 -10.8 -34.5 -17.6 -13.5 -6.8 -26.5 -13.5 -29 -14.8 -7.3 -4 -38 -18.6 -39 -18.6 -1.5 0 -2.4 7 -1.4 10.8 0.7 2.9 1.5 3.7 4.2 4.4 1.8 0.5 8.1 3.4 14 6.5 5.9 3.1 19.7 10.2 30.7 15.8 11 5.6 24.7 12.7 30.5 15.7 5.8 3.1 28.3 14.6 50.1 25.6 21.7 11 42.2 21.5 45.5 23.2 3.2 1.8 15.1 8 26.4 13.8 20.4 10.4 33.4 17.2 40.6 21.3 19.4 10.9 34.8 18.6 36.3 18.2 0.9 -0.2 2.8 -2.2 4.4 -4.3z m-450.3 -27 c1.4 -1 5.8 -3.4 9.9 -5.4 4 -2.1 11 -6.1 15.5 -9 9.5 -6.2 20.8 -12.8 30.9 -18.2 2.7 -1.4 9.9 -5.8 16 -9.8 10.7 -6.9 15.5 -9.7 31.2 -18.1 6.7 -3.6 12.1 -6.7 27.4 -15.5 8.6 -4.9 10.3 -7.4 9.9 -14.3 -0.4 -6.7 -2 -7.1 -9.2 -2.3 -3 2 -5.7 3.6 -6 3.6 -0.4 0 -5.7 3.1 -11.9 6.8 -6.1 3.8 -17.5 10.7 -25.2 15.4 -7.7 4.7 -17.6 10.5 -22 12.8 -4.4 2.4 -13.2 7.6 -19.5 11.6 -10 6.2 -22.8 13.8 -35 20.7 -14.4 8.1 -19.1 11.1 -19.8 12.5 -0.5 1 -0.4 4 0 6.8 0.8 4.7 1.1 5.1 3.1 4.6 1.2 -0.3 3.3 -1.3 4.7 -2.2z m90.2 -4.9 c1.4 -0.5 3.8 -2.2 5.4 -3.7 6.6 -6.2 12.7 -10.3 25.2 -16.8 7.3 -3.9 14.8 -8.4 16.7 -10.2 3.2 -2.9 3.5 -3.7 3.5 -8.7 0 -7.4 -2.1 -8.8 -7.4 -5.2 -2 1.3 -6.2 3.9 -9.4 5.6 -3.1 1.7 -6.4 3.7 -7.2 4.4 -1.8 1.4 -19.6 11.9 -33.8 19.9 -13.3 7.5 -16.4 11.3 -12.5 15.2 1.4 1.4 3 1.6 9.3 1.1 4.2 -0.3 8.8 -1 10.2 -1.6z m14 -0.8 c1.7 -1.5 1.9 -1.5 3.7 0.1 1.6 1.4 3.9 1.6 17.2 1.4 l15.4 -0.3 -0.3 -4 c-0.4 -6.1 -0.3 -9.5 0.4 -15.2 l0.6 -5.3 -3 0 c-2.9 0 -5.4 1.6 -11.6 7.2 -1.7 1.5 -3.9 3.1 -4.8 3.4 -1 0.3 -1.8 0.9 -1.8 1.4 0 0.5 -1 1.2 -2.2 1.6 -2.2 0.7 -7 3.8 -9.6 6.2 -0.7 0.6 -2.7 1.2 -4.3 1.2 -1.6 0 -2.9 0.4 -2.9 0.8 0 0.5 -1 1.4 -2.2 2 -2.2 1 -2.2 1.1 0.6 1.1 1.6 0.1 3.8 -0.6 4.8 -1.6z m-6.7 -28.8 c14.1 -8.5 27.5 -16.6 29.8 -17.8 12.5 -6.9 14 -8.6 13.5 -15.8 -0.3 -3.9 -0.6 -4.4 -2.9 -4.7 -1.4 -0.2 -3.1 0.4 -3.9 1.2 -0.7 0.9 -1.6 1.6 -2 1.6 -0.9 0 -15.5 8.3 -33.6 19.2 -7.7 4.7 -16.5 9.9 -19.5 11.5 -10.5 5.7 -9.9 5 -9.9 12.4 0 6.3 0.4 7.9 2.1 7.9 0.4 0 12.3 -7 26.4 -15.5z"/>
  <path d="M738 445.8 c0 -1.8 1.8 -3.4 2.8 -2.4 0.3 0.4 -0.2 1.4 -1.1 2.3 -1.6 1.6 -1.7 1.6 -1.7 0.1z"/>
  <path d="M726 391.2 c0 -1.1 1.4 -3.5 3.2 -5.2 2.7 -2.8 3.2 -3 4 -1.5 0.9 1.6 -0.5 3.6 -5.4 7.4 -1.6 1.2 -1.8 1.1 -1.8 -0.7z"/>
  <path d="M738 373.5 c0 -2.9 8.4 -13.8 24 -30.9 7.5 -8.2 11.2 -11.6 12.7 -11.6 2.5 0 1.3 1.6 -7.3 9.9 -4.7 4.6 -11.7 12.5 -15.4 17.5 -3.8 5 -8 10.4 -9.4 12 -1.4 1.6 -2.6 3.3 -2.6 3.8 0 0.4 -0.4 0.8 -1 0.8 -0.5 0 -1 -0.7 -1 -1.5z"/>
  <path d="M768 310.6 c-4.7 -2.4 -12.8 -6 -18 -8 -5.2 -2 -11.2 -4.5 -13.2 -5.6 -2 -1.1 -4.8 -2 -6.2 -2 -3.1 0 -6.6 -3.2 -6.6 -6 0 -2.7 2.5 -3.6 5.3 -1.8 1.2 0.8 6 2.9 10.7 4.7 13.1 5.1 32.4 14.7 35.3 17.7 2.6 2.5 3.6 5.4 2 5.4 -0.5 0 -4.6 -2 -9.3 -4.4z"/>
  <path d="M639.6 698.3 c-0.7 -1.7 1 -3.8 11.8 -14.7 5.4 -5.4 8 -4.7 2.8 0.7 -1.6 1.8 -3.9 5 -5 7.2 -3.7 7.4 -8.2 10.6 -9.6 6.8z"/>
  <path d="M658 677.6 c0 -0.7 1 -2.4 2.3 -3.8 1.2 -1.4 3.6 -4.1 5.4 -6.2 1.7 -2 3.6 -3.6 4.1 -3.6 2.1 0 -0.2 4.3 -5 9.6 -5.1 5.5 -6.8 6.5 -6.8 4z"/>
  <path d="M671.1 661.8 c0.1 -1.7 6.2 -10.1 7.7 -10.6 2.7 -0.9 1 4.3 -2.7 7.9 -4.1 4.1 -5.1 4.7 -5 2.7z"/>
  <path d="M744 626 c-1.7 -3.1 0.3 -7.2 5.1 -11.1 3.7 -2.9 3.9 -2.9 3.9 -1 0 2.9 -2.4 8 -5.3 11.5 l-2.5 2.9 -1.2 -2.3z"/>
  <path d="M776 590 c0 -4.5 3.3 -9.1 5.3 -7.1 0.7 0.7 0.3 2.5 -1.4 6.1 -1.3 2.7 -2.7 5 -3.1 5 -0.5 0 -0.8 -1.8 -0.8 -4z"/>
  <path d="M686 441.1 c0 -0.8 4.3 -4.1 5.5 -4.1 1.3 0 0.3 3.8 -1.1 4.4 -2.3 0.9 -4.4 0.7 -4.4 -0.3z"/>
  <path d="M643.5 301.6 l-3 -1.4 2.8 -1.1 c1.6 -0.6 3.4 -1.1 4 -1.1 0.7 0 3 -0.7 5.2 -1.5 5.8 -2.1 8.2 -1.9 9.1 0.7 l0.7 2.3 0.8 -2.2 c1.5 -4.1 7.1 -5.5 20.7 -5.4 6.8 0 12.8 0.4 13.3 0.7 2.6 1.5 0.1 2.4 -7.1 2.4 -6.1 0 -9.7 0.6 -15.3 2.6 -9.2 3.4 -11.3 3.8 -13.4 2.9 -3.5 -1.4 -8.8 -1.1 -11.2 0.7 -2.8 2.1 -2.7 2.1 -6.6 0.4z"/>
 </g>
</svg>